<svg width="32" height="32" viewBox="0 0 32 32" fill="none" xmlns="http://www.w3.org/2000/svg">
<rect width="32" height="32" fill="#E5E5E5"/>
<rect width="1440" height="1024" transform="translate(-784 -513)" fill="#F4F6F7"/>
<g filter="url(#filter0_d_16_0)">
<rect x="-244" y="-314" width="870" height="639" rx="8" fill="white"/>
</g>
<rect x="-43.5" y="-43.5" width="119" height="119" rx="7.5" fill="#F3F4F5" stroke="#DCDCDC"/>
<g opacity="0.4" clip-path="url(#clip0_16_0)">
<path d="M30.75 14.75H17.25V1.25C17.25 0.559625 16.6904 0 16 0C15.3096 0 14.75 0.559625 14.75 1.25V14.75H1.25C0.559625 14.75 0 15.3096 0 16C0 16.6904 0.559625 17.25 1.25 17.25H14.75V30.75C14.75 31.4404 15.3096 32 16 32C16.6904 32 17.25 31.4404 17.25 30.75V17.25H30.75C31.4404 17.25 32 16.6904 32 16C32 15.3096 31.4404 14.75 30.75 14.75Z" fill="#505050"/>
</g>
<defs>
<filter id="filter0_d_16_0" x="-248" y="-314" width="878" height="648" filterUnits="userSpaceOnUse" color-interpolation-filters="sRGB">
<feFlood flood-opacity="0" result="BackgroundImageFix"/>
<feColorMatrix in="SourceAlpha" type="matrix" values="0 0 0 0 0 0 0 0 0 0 0 0 0 0 0 0 0 0 127 0" result="hardAlpha"/>
<feMorphology radius="5" operator="erode" in="SourceAlpha" result="effect1_dropShadow_16_0"/>
<feOffset dy="5"/>
<feGaussianBlur stdDeviation="4.5"/>
<feColorMatrix type="matrix" values="0 0 0 0 0 0 0 0 0 0 0 0 0 0 0 0 0 0 0.05 0"/>
<feBlend mode="normal" in2="BackgroundImageFix" result="effect1_dropShadow_16_0"/>
<feBlend mode="normal" in="SourceGraphic" in2="effect1_dropShadow_16_0" result="shape"/>
</filter>
<clipPath id="clip0_16_0">
<rect width="32" height="32" fill="white"/>
</clipPath>
</defs>
</svg>
