<svg width="8" height="6" viewBox="0 0 8 6" fill="none" xmlns="http://www.w3.org/2000/svg">
<rect width="8" height="6" fill="#E5E5E5"/>
<rect width="1440" height="1024" transform="translate(-961 -381)" fill="#F4F6F7"/>
<g filter="url(#filter0_d_16_0)">
<path d="M-721 -80C-721 -84.4183 -717.418 -88 -713 -88H141C145.418 -88 149 -84.4183 149 -80V650C149 654.418 145.418 658 141 658H-713C-717.418 658 -721 654.418 -721 650V-80Z" fill="white"/>
</g>
<rect x="-311" y="-19" width="345" height="44" rx="8" fill="#F4F6F7" stroke="#DCDCDC"/>
<g clip-path="url(#clip0_16_0)">
<path d="M7.9087 1.06857C7.78678 0.946397 7.58894 0.946209 7.46675 1.06812L4.22097 4.30716C4.09911 4.42901 3.90088 4.42899 3.7788 4.30693L0.53325 1.06812C0.411078 0.946193 0.213235 0.946397 0.091297 1.06857C-0.0306092 1.19074 -0.0304061 1.3886 0.0917502 1.51051L3.33708 4.7491C3.51991 4.9319 3.75998 5.02327 4.00009 5.02327C4.24006 5.02327 4.48008 4.93193 4.66267 4.74932L7.90825 1.51051C8.03041 1.3886 8.03061 1.19074 7.9087 1.06857Z" fill="black"/>
</g>
<defs>
<filter id="filter0_d_16_0" x="-730" y="-92" width="888" height="764" filterUnits="userSpaceOnUse" color-interpolation-filters="sRGB">
<feFlood flood-opacity="0" result="BackgroundImageFix"/>
<feColorMatrix in="SourceAlpha" type="matrix" values="0 0 0 0 0 0 0 0 0 0 0 0 0 0 0 0 0 0 127 0" result="hardAlpha"/>
<feOffset dy="5"/>
<feGaussianBlur stdDeviation="4.5"/>
<feColorMatrix type="matrix" values="0 0 0 0 0 0 0 0 0 0 0 0 0 0 0 0 0 0 0.05 0"/>
<feBlend mode="normal" in2="BackgroundImageFix" result="effect1_dropShadow_16_0"/>
<feBlend mode="normal" in="SourceGraphic" in2="effect1_dropShadow_16_0" result="shape"/>
</filter>
<clipPath id="clip0_16_0">
<rect width="8" height="8" fill="white" transform="translate(0 -1)"/>
</clipPath>
</defs>
</svg>
