<svg width="28" height="28" viewBox="0 0 28 28" fill="none" xmlns="http://www.w3.org/2000/svg">
<rect width="28" height="28" fill="#E5E5E5"/>
<g filter="url(#filter0_d_16_0)">
<rect x="-14" y="-20" width="320" height="68" rx="6" fill="#6FCF97"/>
<path d="M17.627 9.71996L11.907 15.4533L9.707 13.2533C9.58747 13.1137 9.44038 13.0004 9.27496 12.9203C9.10954 12.8403 8.92936 12.7953 8.74574 12.7882C8.56211 12.7811 8.379 12.8121 8.2079 12.8791C8.0368 12.9461 7.8814 13.0478 7.75146 13.1778C7.62152 13.3077 7.51985 13.4631 7.45282 13.6342C7.38578 13.8053 7.35484 13.9884 7.36193 14.172C7.36903 14.3557 7.414 14.5358 7.49403 14.7013C7.57406 14.8667 7.68742 15.0138 7.827 15.1333L10.9603 18.28C11.0849 18.4035 11.2327 18.5013 11.3951 18.5677C11.5576 18.634 11.7315 18.6676 11.907 18.6666C12.2568 18.6652 12.592 18.5263 12.8403 18.28L19.507 11.6133C19.632 11.4893 19.7312 11.3419 19.7989 11.1794C19.8665 11.0169 19.9014 10.8426 19.9014 10.6666C19.9014 10.4906 19.8665 10.3163 19.7989 10.1539C19.7312 9.99138 19.632 9.84391 19.507 9.71996C19.2572 9.47163 18.9192 9.33224 18.567 9.33224C18.2148 9.33224 17.8768 9.47163 17.627 9.71996ZM14.0003 0.666626C11.3632 0.666626 8.78538 1.44861 6.59273 2.9137C4.40007 4.37878 2.69111 6.46116 1.68194 8.89751C0.672769 11.3339 0.408725 14.0148 0.923194 16.6012C1.43766 19.1876 2.70754 21.5634 4.57224 23.4281C6.43694 25.2928 8.81271 26.5626 11.3991 27.0771C13.9855 27.5916 16.6664 27.3275 19.1028 26.3184C21.5391 25.3092 23.6215 23.6002 25.0866 21.4076C26.5517 19.2149 27.3337 16.637 27.3337 14C27.3337 12.249 26.9888 10.5152 26.3187 8.89751C25.6487 7.27984 24.6665 5.80998 23.4284 4.57187C22.1903 3.33375 20.7205 2.35163 19.1028 1.68157C17.4851 1.0115 15.7513 0.666626 14.0003 0.666626ZM14.0003 24.6666C11.8907 24.6666 9.82837 24.041 8.07425 22.869C6.32012 21.6969 4.95295 20.031 4.14562 18.0819C3.33828 16.1328 3.12705 13.9881 3.53862 11.919C3.9502 9.84987 4.9661 7.94925 6.45786 6.45749C7.94962 4.96573 9.85024 3.94983 11.9194 3.53825C13.9885 3.12667 16.1332 3.33791 18.0823 4.14524C20.0314 4.95258 21.6973 6.31975 22.8693 8.07388C24.0414 9.828 24.667 11.8903 24.667 14C24.667 16.8289 23.5432 19.542 21.5428 21.5424C19.5424 23.5428 16.8293 24.6666 14.0003 24.6666Z" fill="white"/>
<rect x="-13.5" y="-19.5" width="319" height="67" rx="5.5" stroke="#6FCF97"/>
</g>
<defs>
<filter id="filter0_d_16_0" x="-40" y="-44" width="372" height="120" filterUnits="userSpaceOnUse" color-interpolation-filters="sRGB">
<feFlood flood-opacity="0" result="BackgroundImageFix"/>
<feColorMatrix in="SourceAlpha" type="matrix" values="0 0 0 0 0 0 0 0 0 0 0 0 0 0 0 0 0 0 127 0" result="hardAlpha"/>
<feOffset dy="2"/>
<feGaussianBlur stdDeviation="13"/>
<feColorMatrix type="matrix" values="0 0 0 0 0.319817 0 0 0 0 0.841623 0 0 0 0 0 0 0 0 0.1 0"/>
<feBlend mode="normal" in2="BackgroundImageFix" result="effect1_dropShadow_16_0"/>
<feBlend mode="normal" in="SourceGraphic" in2="effect1_dropShadow_16_0" result="shape"/>
</filter>
</defs>
</svg>
