<svg width="200" height="200" viewBox="0 0 200 200" fill="none" xmlns="http://www.w3.org/2000/svg">
<rect width="200" height="200" fill="#E5E5E5"/>
<rect width="1440" height="1024" transform="translate(-273 -245)" fill="#F4F6F7"/>
<g filter="url(#filter0_d_16_0)">
<rect x="-33" y="-46" width="270" height="322" rx="8" fill="white"/>
</g>
<rect x="0.5" y="0.5" width="199" height="199" rx="11.5" stroke="#31609A"/>
<g clip-path="url(#clip0_16_0)">
<path d="M163.059 158.118H131.267V142.266C134.624 145.749 137.138 148.026 137.297 148.169C138.797 149.523 141.078 149.523 142.578 148.169C150.939 140.625 167 123.572 167 111.612C167 93.0698 148.716 80.0563 131.267 85.9734V52.7569C131.267 50.5803 129.502 48.8157 127.325 48.8157H115.502V35.9412C115.502 33.7646 113.737 32 111.561 32H77.9294C75.7528 32 73.9882 33.7646 73.9882 35.9412V48.8157H62.1647C59.9881 48.8157 58.2235 50.5803 58.2235 52.7569V90.8549H36.9412C34.7646 90.8549 33 92.6195 33 94.7961V162.059C33 164.235 34.7646 166 36.9412 166H163.059C165.235 166 167 164.235 167 162.059C167 159.882 165.235 158.118 163.059 158.118ZM58.2235 107.671H53.7569C51.5803 107.671 49.8157 109.435 49.8157 111.612C49.8157 113.788 51.5803 115.553 53.7569 115.553H58.2235V124.486H53.7569C51.5803 124.486 49.8157 126.251 49.8157 128.427C49.8157 130.604 51.5803 132.369 53.7569 132.369H58.2235V141.302H53.7569C51.5803 141.302 49.8157 143.067 49.8157 145.243C49.8157 147.42 51.5803 149.184 53.7569 149.184H58.2235V158.118H40.8824V98.7373H58.2235V107.671ZM81.8706 39.8824H107.62V48.8157H81.8706V39.8824ZM123.384 158.118H66.1059C66.1059 153.995 66.1059 60.8449 66.1059 56.698H123.384V90.2172C116.995 95.1718 112.875 102.919 112.875 111.612C112.875 117.346 116.409 124.653 123.384 133.356V158.118ZM120.757 111.612C120.757 101.036 129.361 92.4314 139.937 92.4314C150.513 92.4314 159.118 101.036 159.118 111.612C159.118 118.829 148.258 131.775 139.937 139.842C134.052 134.136 120.757 119.703 120.757 111.612Z" fill="#31609A"/>
<path d="M85.2864 65.6314H78.9805C76.8039 65.6314 75.0393 67.396 75.0393 69.5726C75.0393 71.7491 76.8039 73.5137 78.9805 73.5137H85.2864C87.463 73.5137 89.2276 71.7491 89.2276 69.5726C89.2276 67.396 87.463 65.6314 85.2864 65.6314Z" fill="#31609A"/>
<path d="M104.204 73.5137H110.51C112.686 73.5137 114.451 71.7491 114.451 69.5726C114.451 67.396 112.686 65.6314 110.51 65.6314H104.204C102.027 65.6314 100.263 67.396 100.263 69.5726C100.263 71.7491 102.027 73.5137 104.204 73.5137Z" fill="#31609A"/>
<path d="M85.2864 82.4471H78.9805C76.8039 82.4471 75.0393 84.2116 75.0393 86.3882C75.0393 88.5648 76.8039 90.3294 78.9805 90.3294H85.2864C87.463 90.3294 89.2276 88.5648 89.2276 86.3882C89.2276 84.2116 87.463 82.4471 85.2864 82.4471Z" fill="#31609A"/>
<path d="M114.451 86.3882C114.451 84.2116 112.686 82.4471 110.51 82.4471H104.204C102.027 82.4471 100.263 84.2116 100.263 86.3882C100.263 88.5648 102.027 90.3294 104.204 90.3294H110.51C112.686 90.3294 114.451 88.5648 114.451 86.3882Z" fill="#31609A"/>
<path d="M85.2864 99.2628H78.9805C76.8039 99.2628 75.0393 101.027 75.0393 103.204C75.0393 105.381 76.8039 107.145 78.9805 107.145H85.2864C87.463 107.145 89.2276 105.381 89.2276 103.204C89.2276 101.027 87.463 99.2628 85.2864 99.2628Z" fill="#31609A"/>
<path d="M85.2864 116.078H78.9805C76.8039 116.078 75.0393 117.843 75.0393 120.02C75.0393 122.196 76.8039 123.961 78.9805 123.961H85.2864C87.463 123.961 89.2276 122.196 89.2276 120.02C89.2276 117.843 87.463 116.078 85.2864 116.078Z" fill="#31609A"/>
<path d="M85.2864 132.894H78.9805C76.8039 132.894 75.0393 134.659 75.0393 136.835C75.0393 139.012 76.8039 140.776 78.9805 140.776H85.2864C87.463 140.776 89.2276 139.012 89.2276 136.835C89.2276 134.659 87.463 132.894 85.2864 132.894Z" fill="#31609A"/>
<path d="M150.184 111.612C150.184 109.435 148.42 107.671 146.243 107.671H133.631C131.455 107.671 129.69 109.435 129.69 111.612C129.69 113.788 131.455 115.553 133.631 115.553H146.243C148.42 115.553 150.184 113.788 150.184 111.612Z" fill="#31609A"/>
</g>
<defs>
<filter id="filter0_d_16_0" x="-37" y="-46" width="278" height="331" filterUnits="userSpaceOnUse" color-interpolation-filters="sRGB">
<feFlood flood-opacity="0" result="BackgroundImageFix"/>
<feColorMatrix in="SourceAlpha" type="matrix" values="0 0 0 0 0 0 0 0 0 0 0 0 0 0 0 0 0 0 127 0" result="hardAlpha"/>
<feMorphology radius="5" operator="erode" in="SourceAlpha" result="effect1_dropShadow_16_0"/>
<feOffset dy="5"/>
<feGaussianBlur stdDeviation="4.5"/>
<feColorMatrix type="matrix" values="0 0 0 0 0 0 0 0 0 0 0 0 0 0 0 0 0 0 0.05 0"/>
<feBlend mode="normal" in2="BackgroundImageFix" result="effect1_dropShadow_16_0"/>
<feBlend mode="normal" in="SourceGraphic" in2="effect1_dropShadow_16_0" result="shape"/>
</filter>
<clipPath id="clip0_16_0">
<rect width="134" height="134" fill="white" transform="translate(33 32)"/>
</clipPath>
</defs>
</svg>
