<svg width="152" height="152" viewBox="0 0 152 152" fill="none" xmlns="http://www.w3.org/2000/svg">
<rect width="152" height="152" fill="#E5E5E5"/>
<g filter="url(#filter0_d_16_0)">
<rect x="-108" y="-139" width="368" height="476" rx="8" fill="white"/>
</g>
<g clip-path="url(#clip0_16_0)">
<path d="M44.1878 67.4262C43.6822 66.9206 42.962 66.6887 42.2569 66.8035C41.5507 66.9183 40.9419 67.3648 40.6218 68.0049L0.2354 148.778C-0.193676 149.635 -0.0255247 150.67 0.652878 151.348C1.07963 151.775 1.65019 152 2.2277 152C2.56516 152 2.9061 151.923 3.22269 151.765L83.9955 111.379C84.6345 111.059 85.0821 110.451 85.197 109.743C85.3118 109.037 85.0798 108.319 84.5731 107.813L44.1878 67.4262ZM17.1155 124.974L27.0259 134.885L7.20613 144.794L17.1155 124.974ZM74.4643 111.165L52.6023 89.3033C51.7326 88.4335 50.3224 88.4335 49.4527 89.3033C48.5841 90.173 48.5841 91.582 49.4527 92.4518L70.2663 113.264L31.2239 132.786L19.2156 120.777L38.7362 81.7342L42.7208 85.7199C43.1557 86.1548 43.7251 86.3717 44.2956 86.3717C44.865 86.3717 45.4356 86.1548 45.8693 85.7199C46.739 84.8502 46.739 83.44 45.8693 82.5714L40.8352 77.5362L43.2229 72.7607L79.2409 108.777L74.4643 111.165Z" fill="#31609A"/>
<path d="M37.6778 98.9842C36.6712 97.9776 35.1416 97.7352 33.8729 98.3823C32.6031 99.0282 31.9003 100.408 32.123 101.815L33.0461 107.646L27.7858 110.327C26.5172 110.973 25.8132 112.353 26.0359 113.759C26.2586 115.166 27.3544 116.262 28.7611 116.485L34.5919 117.408L35.5162 123.24C35.7388 124.646 36.8336 125.741 38.2402 125.964C38.4142 125.992 38.587 126.004 38.7586 126.004C39.9763 126.004 41.1069 125.327 41.674 124.215L44.354 118.955L50.186 119.878C51.5927 120.101 52.9727 119.398 53.6186 118.128C54.2657 116.859 54.0233 115.33 53.0156 114.323L48.8408 110.148L51.5219 104.887C52.1679 103.618 51.9255 102.089 50.9189 101.082C49.9111 100.074 48.3815 99.8319 47.1129 100.479L41.8526 103.159L37.6778 98.9842ZM45.9114 106.089L44.1395 109.568C43.7011 110.428 43.867 111.471 44.5488 112.153L47.3088 114.913L43.4529 114.303C42.4997 114.151 41.5592 114.632 41.1209 115.491L39.3489 118.97L38.7377 115.114C38.587 114.161 37.8402 113.414 36.8869 113.263L33.031 112.652L36.51 110.88C37.3693 110.442 37.8483 109.501 37.6975 108.548L37.0875 104.692L39.8475 107.452C40.5294 108.135 41.5731 108.3 42.4324 107.863L45.9114 106.089Z" fill="#31609A"/>
<path d="M72.0468 79.9545C72.4806 80.3894 73.0511 80.6074 73.6205 80.6074C74.1899 80.6074 74.7605 80.3894 75.1953 79.9545L127.55 27.6001C128.419 26.7304 128.419 25.3202 127.55 24.4516C126.681 23.5819 125.271 23.5819 124.401 24.4516L72.0468 76.806C71.1771 77.6758 71.1771 79.0859 72.0468 79.9545Z" fill="#31609A"/>
<path d="M76.9452 33.5283C75.8319 33.0065 74.5064 33.4854 73.9846 34.5999L58.3673 67.916C57.8455 69.0304 58.3244 70.3559 59.4377 70.8778C59.7439 71.0204 60.0651 71.0888 60.3817 71.0888C61.2178 71.0888 62.0203 70.6145 62.3995 69.8062L78.0167 36.489C78.5386 35.3757 78.0585 34.0502 76.9452 33.5283Z" fill="#31609A"/>
<path d="M81.1252 92.562C81.5032 93.3691 82.3057 93.8435 83.1418 93.8435C83.4584 93.8435 83.7796 93.7762 84.0858 93.6336L117.401 78.0163C118.514 77.4945 118.994 76.169 118.472 75.0545C117.95 73.9413 116.624 73.4623 115.51 73.9842L82.1955 89.6014C81.0822 90.1232 80.6033 91.4487 81.1252 92.562Z" fill="#31609A"/>
<path d="M89.5792 39.0413C87.8293 39.2361 85.4335 39.504 83.6673 42.0413C81.9 44.5821 82.4821 46.9223 82.9065 48.6317C83.2916 50.1798 83.3762 50.7945 82.8126 51.6039C82.2502 52.4133 81.6448 52.5479 80.0584 52.7253C78.3085 52.9213 75.9115 53.1892 74.1453 55.73C72.3791 58.2696 72.9613 60.6098 73.3857 62.318C73.7707 63.8662 73.8554 64.4796 73.2929 65.2879C72.5914 66.298 72.8407 67.685 73.8496 68.3877C74.2369 68.6579 74.6799 68.7866 75.1194 68.7866C75.8233 68.7866 76.5168 68.4538 76.9494 67.8311C78.7155 65.2926 78.1334 62.9512 77.7078 61.243C77.3228 59.6949 77.2381 59.0814 77.8006 58.272C78.3642 57.4625 78.9695 57.328 80.5548 57.1506C82.3047 56.9546 84.7017 56.6867 86.469 54.147C88.2352 51.6062 87.653 49.266 87.2286 47.5567C86.8436 46.0085 86.7589 45.3939 87.3225 44.5845C87.8838 43.7773 88.4892 43.644 90.0721 43.4666C91.822 43.2717 94.2191 43.005 95.9852 40.4665C97.7526 37.9268 97.1704 35.5855 96.7448 33.8773C96.3598 32.328 96.2763 31.7145 96.8387 30.9051C97.4023 30.0945 98.0077 29.96 99.5941 29.7825C101.344 29.5865 103.741 29.3175 105.508 26.7778C107.275 24.237 106.694 21.8968 106.269 20.1875C105.884 18.6382 105.799 18.0236 106.363 17.2129C106.93 16.3989 107.537 16.2643 109.124 16.0846C110.875 15.8875 113.272 15.6161 115.041 13.0741C116.809 10.5321 116.229 8.18961 115.806 6.48027C115.422 4.92748 115.338 4.31286 115.905 3.49877C116.608 2.48871 116.358 1.10175 115.348 0.398994C114.339 -0.303762 112.951 -0.0544343 112.249 0.955632C110.481 3.49761 111.06 5.84013 111.484 7.54948C111.868 9.1011 111.951 9.71688 111.386 10.531C110.82 11.3451 110.213 11.4807 108.624 11.6593C106.873 11.8576 104.476 12.1278 102.708 14.671C100.94 17.2106 101.521 19.552 101.947 21.2613C102.332 22.8106 102.417 23.4241 101.852 24.2347C101.288 25.0453 100.683 25.1798 99.0978 25.3573C97.3478 25.5532 94.9508 25.8223 93.1835 28.3619C91.4162 30.9016 91.9983 33.243 92.4239 34.9511C92.8089 36.4993 92.8924 37.1139 92.33 37.9234C91.7675 38.7317 91.1633 38.865 89.5792 39.0413Z" fill="#31609A"/>
<path d="M151.617 31.9187C150.929 30.8993 149.545 30.6315 148.526 31.3191C145.961 33.054 145.657 35.4476 145.435 37.1952C145.235 38.7816 145.091 39.3858 144.27 39.9401C143.448 40.4956 142.833 40.404 141.287 39.9981C139.584 39.5516 137.249 38.9405 134.683 40.6742C132.119 42.4067 131.817 44.8003 131.598 46.5479C131.399 48.1308 131.256 48.7339 130.437 49.287C129.62 49.8402 129.007 49.7474 127.464 49.3415C125.76 48.8939 123.427 48.2804 120.864 50.013C118.301 51.7444 118 54.1379 117.781 55.8855C117.581 57.4685 117.439 58.0715 116.622 58.6235C115.806 59.1744 115.195 59.0816 113.653 58.6757C111.951 58.2269 109.619 57.6111 107.057 59.3425C104.493 61.0751 104.193 63.4686 103.973 65.2151C103.774 66.7992 103.632 67.4022 102.814 67.9542C101.996 68.5074 101.384 68.4146 99.8406 68.0087C98.1371 67.5599 95.805 66.9465 93.241 68.679C90.6781 70.4104 90.3777 72.8039 90.1586 74.5516C89.9603 76.1334 89.8176 76.7364 89.0012 77.2884C87.983 77.9772 87.7151 79.3607 88.4028 80.3801C88.8342 81.0167 89.5358 81.36 90.2502 81.36C90.6793 81.36 91.113 81.2371 91.4945 80.9784C94.0574 79.2459 94.3577 76.8535 94.5769 75.1059C94.7752 73.5241 94.9178 72.9211 95.7342 72.3691C96.5518 71.8171 97.1653 71.9098 98.7076 72.3146C100.411 72.7634 102.743 73.3768 105.307 71.6443C107.87 69.9117 108.172 67.5193 108.391 65.7717C108.59 64.1876 108.733 63.5857 109.551 63.0326C110.365 62.4829 110.977 62.5745 112.518 62.9816C114.221 63.4303 116.553 64.045 119.115 62.3136C121.678 60.5822 121.979 58.1887 122.199 56.441C122.397 54.8581 122.54 54.2551 123.358 53.7031C124.175 53.1499 124.787 53.2427 126.331 53.6486C128.034 54.0962 130.367 54.7096 132.931 52.9771C135.495 51.2446 135.796 48.8522 136.016 47.1045C136.216 45.5204 136.359 44.9174 137.176 44.3642C137.998 43.8088 138.612 43.9015 140.159 44.3063C141.862 44.7527 144.197 45.365 146.763 43.6313C149.328 41.8976 149.632 39.5029 149.854 37.7553C150.054 36.17 150.198 35.5658 151.019 35.0104C152.038 34.3204 152.306 32.9369 151.617 31.9187Z" fill="#31609A"/>
<path d="M53.2025 42.7267C51.8607 43.8667 50.0227 45.4288 49.9774 48.5228C49.9311 51.6168 51.7216 53.2322 53.0297 54.4116C54.2137 55.4808 54.6277 55.9435 54.6126 56.9292C54.5941 58.1584 55.5763 59.1708 56.8056 59.1882H56.8392C58.0545 59.1882 59.0472 58.2129 59.0658 56.9953C59.111 53.9013 57.3205 52.2859 56.0135 51.1053C54.8283 50.0373 54.4155 49.5746 54.4306 48.5889C54.4445 47.602 54.8712 47.152 56.0877 46.1188C57.4295 44.9788 59.2664 43.4156 59.3128 40.3228C59.3592 37.2288 57.5686 35.6122 56.2605 34.4316C55.0765 33.3624 54.6625 32.8997 54.6776 31.9128C54.6927 30.9213 55.1194 30.4702 56.3359 29.4335C57.6776 28.2912 59.5146 26.7268 59.5598 23.6305C59.6062 20.5342 57.8168 18.9153 56.5099 17.7336C55.3247 16.662 54.9107 16.1982 54.9258 15.2067C54.9443 13.9774 53.9621 12.9662 52.7317 12.9476C51.5024 12.9349 50.4912 13.9113 50.4726 15.1417C50.4274 18.238 52.2168 19.8558 53.5237 21.0375C54.7089 22.109 55.1229 22.5729 55.1078 23.5644C55.0927 24.5559 54.666 25.007 53.4495 26.0438C52.1078 27.186 50.2708 28.7504 50.2256 31.8467C50.1792 34.9407 51.9698 36.5573 53.2767 37.7367C54.4619 38.8071 54.8747 39.2686 54.8596 40.2567C54.8457 41.2435 54.419 41.6923 53.2025 42.7267Z" fill="#31609A"/>
<path d="M137.907 90.9279C134.808 90.8839 133.193 92.6721 132.012 93.979C130.939 95.1642 130.463 95.5771 129.485 95.5631C128.493 95.5492 128.042 95.1213 127.005 93.9048C125.863 92.5631 124.299 90.7262 121.202 90.6809C118.101 90.6322 116.492 92.4251 115.311 93.732C114.242 94.9172 113.792 95.3347 112.792 95.3161C111.805 95.3011 111.356 94.8743 110.322 93.659C109.182 92.3161 107.619 90.4792 104.525 90.4328C101.428 90.3864 99.8157 92.1781 98.6363 93.485C97.5671 94.669 97.0997 95.0854 96.1187 95.068C94.8952 95.0494 93.8782 96.0316 93.8596 97.2621C93.8411 98.4913 94.8233 99.5025 96.0526 99.5211C99.1442 99.564 100.763 97.7769 101.943 96.4688C103.012 95.2837 103.47 94.8673 104.46 94.8859C105.447 94.8998 105.896 95.3266 106.929 96.5431C108.07 97.8848 109.632 99.7229 112.726 99.7681C115.819 99.8133 117.437 98.024 118.616 96.717C119.687 95.5318 120.146 95.1178 121.136 95.1329C122.128 95.148 122.579 95.5747 123.614 96.7924C124.758 98.133 126.322 99.9699 129.419 100.016C129.458 100.016 129.496 100.017 129.535 100.017C132.555 100.017 134.148 98.2559 135.314 96.9652C136.387 95.78 136.865 95.3648 137.841 95.3811C139.06 95.395 140.083 94.4174 140.1 93.1881C140.119 91.9577 139.137 90.9465 137.907 90.9279Z" fill="#31609A"/>
<path d="M73.6211 18.7332H76.1538V21.2659C76.1538 22.4952 77.1511 23.4925 78.3804 23.4925C79.6108 23.4925 80.6069 22.4952 80.6069 21.2659V18.7332H83.1396C84.37 18.7332 85.3662 17.7359 85.3662 16.5067C85.3662 15.2762 84.37 14.2801 83.1396 14.2801H80.6069V11.7462C80.6069 10.517 79.6108 9.51965 78.3804 9.51965C77.1511 9.51965 76.1538 10.517 76.1538 11.7462V14.2801H73.6211C72.3918 14.2801 71.3945 15.2762 71.3945 16.5067C71.3945 17.7359 72.3918 18.7332 73.6211 18.7332Z" fill="#31609A"/>
<path d="M129.162 77.1666C129.596 77.6015 130.166 77.8195 130.736 77.8195C131.305 77.8195 131.876 77.6015 132.311 77.1666L134.101 75.3761L135.893 77.1666C136.326 77.6015 136.897 77.8195 137.466 77.8195C138.036 77.8195 138.606 77.6015 139.041 77.1666C139.91 76.2969 139.91 74.8879 139.041 74.0182L137.25 72.2276L139.041 70.4359C139.91 69.5662 139.91 68.1572 139.041 67.2874C138.172 66.4177 136.761 66.4177 135.893 67.2874L134.101 69.0791L132.311 67.2874C131.441 66.4177 130.031 66.4177 129.162 67.2874C128.292 68.1572 128.292 69.5674 129.162 70.4359L130.953 72.2276L129.162 74.0182C128.292 74.8879 128.292 76.2969 129.162 77.1666Z" fill="#31609A"/>
<path d="M130.326 15.9443H136.634V22.2518C136.634 23.481 137.63 24.4783 138.86 24.4783C140.089 24.4783 141.087 23.481 141.087 22.2518V15.9443H147.393C148.622 15.9443 149.62 14.9482 149.62 13.7178C149.62 12.4885 148.622 11.4912 147.393 11.4912H141.087V5.18494C141.087 3.95453 140.089 2.95837 138.86 2.95837C137.63 2.95837 136.634 3.95453 136.634 5.18494V11.4912H130.326C129.097 11.4912 128.1 12.4885 128.1 13.7178C128.1 14.9482 129.097 15.9443 130.326 15.9443Z" fill="#31609A"/>
<path d="M42.6836 49.6698C43.9128 49.6698 44.9102 48.6725 44.9102 47.4432V42.684C44.9102 41.4536 43.9128 40.4574 42.6836 40.4574C41.4532 40.4574 40.457 41.4536 40.457 42.684V47.4432C40.457 48.6725 41.4532 49.6698 42.6836 49.6698Z" fill="#31609A"/>
<path d="M109.316 104.711H104.557C103.326 104.711 102.33 105.708 102.33 106.937C102.33 108.168 103.326 109.164 104.557 109.164H109.316C110.545 109.164 111.542 108.168 111.542 106.937C111.542 105.708 110.545 104.711 109.316 104.711Z" fill="#31609A"/>
</g>
<defs>
<filter id="filter0_d_16_0" x="-112" y="-139" width="376" height="485" filterUnits="userSpaceOnUse" color-interpolation-filters="sRGB">
<feFlood flood-opacity="0" result="BackgroundImageFix"/>
<feColorMatrix in="SourceAlpha" type="matrix" values="0 0 0 0 0 0 0 0 0 0 0 0 0 0 0 0 0 0 127 0" result="hardAlpha"/>
<feMorphology radius="5" operator="erode" in="SourceAlpha" result="effect1_dropShadow_16_0"/>
<feOffset dy="5"/>
<feGaussianBlur stdDeviation="4.5"/>
<feColorMatrix type="matrix" values="0 0 0 0 0 0 0 0 0 0 0 0 0 0 0 0 0 0 0.05 0"/>
<feBlend mode="normal" in2="BackgroundImageFix" result="effect1_dropShadow_16_0"/>
<feBlend mode="normal" in="SourceGraphic" in2="effect1_dropShadow_16_0" result="shape"/>
</filter>
<clipPath id="clip0_16_0">
<rect width="152" height="152" fill="white"/>
</clipPath>
</defs>
</svg>
