<svg width="24" height="24" viewBox="0 0 24 24" fill="none" xmlns="http://www.w3.org/2000/svg">
<rect width="24" height="24" fill="#E5E5E5"/>
<rect width="1440" height="1024" transform="translate(-624 -602)" fill="#F4F6F7"/>
<g filter="url(#filter0_d_16_0)">
<path d="M-384 -301C-384 -305.418 -380.418 -309 -376 -309H478C482.418 -309 486 -305.418 486 -301V429C486 433.418 482.418 437 478 437H-376C-380.418 437 -384 433.418 -384 429V-301Z" fill="white"/>
</g>
<circle cx="12" cy="12" r="12" fill="#436DA2"/>
<g clip-path="url(#clip0_16_0)">
<path d="M17.5312 11.5312H12.4688V6.46875C12.4688 6.20986 12.2589 6 12 6C11.7411 6 11.5312 6.20986 11.5312 6.46875V11.5312H6.46875C6.20986 11.5312 6 11.7411 6 12C6 12.2589 6.20986 12.4688 6.46875 12.4688H11.5312V17.5312C11.5312 17.7901 11.7411 18 12 18C12.2589 18 12.4688 17.7901 12.4688 17.5312V12.4688H17.5312C17.7901 12.4688 18 12.2589 18 12C18 11.7411 17.7901 11.5312 17.5312 11.5312Z" fill="white"/>
</g>
<defs>
<filter id="filter0_d_16_0" x="-393" y="-313" width="888" height="764" filterUnits="userSpaceOnUse" color-interpolation-filters="sRGB">
<feFlood flood-opacity="0" result="BackgroundImageFix"/>
<feColorMatrix in="SourceAlpha" type="matrix" values="0 0 0 0 0 0 0 0 0 0 0 0 0 0 0 0 0 0 127 0" result="hardAlpha"/>
<feOffset dy="5"/>
<feGaussianBlur stdDeviation="4.5"/>
<feColorMatrix type="matrix" values="0 0 0 0 0 0 0 0 0 0 0 0 0 0 0 0 0 0 0.05 0"/>
<feBlend mode="normal" in2="BackgroundImageFix" result="effect1_dropShadow_16_0"/>
<feBlend mode="normal" in="SourceGraphic" in2="effect1_dropShadow_16_0" result="shape"/>
</filter>
<clipPath id="clip0_16_0">
<rect width="12" height="12" fill="white" transform="translate(6 6)"/>
</clipPath>
</defs>
</svg>
