<svg width="36" height="34" viewBox="0 0 36 34" fill="none" xmlns="http://www.w3.org/2000/svg">
<rect width="36" height="34" fill="#E5E5E5"/>
<rect width="1440" height="1024" transform="translate(-1229 -114)" fill="#F4F6F7"/>
<path d="M35.5 0.5H67C68.933 0.5 70.5 2.067 70.5 4V30C70.5 31.933 68.933 33.5 67 33.5H35.5V0.5Z" fill="white"/>
<path d="M35.5 0.5H67C68.933 0.5 70.5 2.067 70.5 4V30C70.5 31.933 68.933 33.5 67 33.5H35.5V0.5Z" stroke="#31609A"/>
<path d="M4 0.5H35.5V33.5H4C2.067 33.5 0.5 31.933 0.5 30V4C0.5 2.067 2.067 0.5 4 0.5Z" fill="white"/>
<g clip-path="url(#clip0_16_0)">
<path d="M25.375 20.1601C25.7202 20.1601 26 19.8803 26 19.5351V15.1288C26 13.8537 24.9626 12.8163 23.6875 12.8163C22.4124 12.8163 21.375 13.8537 21.375 15.1288V22.6875C21.375 23.9626 22.4124 25 23.6875 25C24.9626 25 26 23.9626 26 22.6875C26 22.3423 25.7202 22.0625 25.375 22.0625C25.0298 22.0625 24.75 22.3423 24.75 22.6875C24.75 23.2734 24.2734 23.75 23.6875 23.75C23.1016 23.75 22.625 23.2734 22.625 22.6875V15.1288C22.625 14.5429 23.1016 14.0663 23.6875 14.0663C24.2734 14.0663 24.75 14.5429 24.75 15.1288V19.5351C24.75 19.8803 25.0298 20.1601 25.375 20.1601Z" fill="#31609A"/>
<path d="M12.3125 14.7226C11.0374 14.7226 10 15.7599 10 17.0351V22.6875C10 23.9626 11.0374 25 12.3125 25C13.5876 25 14.625 23.9626 14.625 22.6875V17.0351C14.625 15.7599 13.5876 14.7226 12.3125 14.7226ZM13.375 22.6875C13.375 23.2734 12.8984 23.75 12.3125 23.75C11.7266 23.75 11.25 23.2734 11.25 22.6875V17.0351C11.25 16.4492 11.7266 15.9726 12.3125 15.9726C12.8984 15.9726 13.375 16.4492 13.375 17.0351V22.6875Z" fill="#31609A"/>
<path d="M18 9C16.7249 9 15.6875 10.0374 15.6875 11.3125V22.6875C15.6875 23.9626 16.7249 25 18 25C19.2751 25 20.3125 23.9626 20.3125 22.6875V11.3125C20.3125 10.0374 19.2751 9 18 9ZM19.0625 22.6875C19.0625 23.2734 18.5859 23.75 18 23.75C17.4141 23.75 16.9375 23.2734 16.9375 22.6875V11.3125C16.9375 10.7266 17.4141 10.25 18 10.25C18.5859 10.25 19.0625 10.7266 19.0625 11.3125V22.6875Z" fill="#31609A"/>
</g>
<path d="M4 0.5H35.5V33.5H4C2.067 33.5 0.5 31.933 0.5 30V4C0.5 2.067 2.067 0.5 4 0.5Z" stroke="#31609A"/>
<g opacity="0.3" filter="url(#filter0_f_16_0)">
<rect x="-972" y="-45" width="1134" height="21" rx="8" fill="#31609A"/>
</g>
<defs>
<filter id="filter0_f_16_0" x="-1022" y="-95" width="1234" height="121" filterUnits="userSpaceOnUse" color-interpolation-filters="sRGB">
<feFlood flood-opacity="0" result="BackgroundImageFix"/>
<feBlend mode="normal" in="SourceGraphic" in2="BackgroundImageFix" result="shape"/>
<feGaussianBlur stdDeviation="25" result="effect1_foregroundBlur_16_0"/>
</filter>
<clipPath id="clip0_16_0">
<rect width="16" height="16" fill="white" transform="translate(10 9)"/>
</clipPath>
</defs>
</svg>
