<svg width="36" height="34" viewBox="0 0 36 34" fill="none" xmlns="http://www.w3.org/2000/svg">
<path d="M0.5 0.5H32C33.933 0.5 35.5 2.067 35.5 4V30C35.5 31.933 33.933 33.5 32 33.5H0.5V0.5Z" fill="white"/>
<g clip-path="url(#clip0_86_37)">
<path d="M22.74 17.7686C22.0621 17.2815 21.3242 16.9066 20.5468 16.6506C21.5804 15.8746 22.2502 14.639 22.2502 13.25C22.2502 10.9066 20.3437 9 18.0002 9C15.6568 9 13.7502 10.9066 13.7502 13.25C13.7502 14.6408 14.4217 15.8776 15.4575 16.6535C14.5085 16.9659 13.618 17.4521 12.8387 18.0931C11.4095 19.2687 10.4159 20.9083 10.0408 22.7101C9.92323 23.2747 10.0641 23.8545 10.4271 24.301C10.7884 24.7452 11.3241 25 11.8969 25H18.344C18.6892 25 18.969 24.7202 18.969 24.375C18.969 24.0298 18.6892 23.75 18.344 23.75H11.8969C11.6301 23.75 11.4691 23.6011 11.3969 23.5123C11.2723 23.359 11.224 23.1595 11.2645 22.9648C11.9132 19.8494 14.6611 17.5736 17.8345 17.4968C17.8895 17.4989 17.9447 17.5 18.0002 17.5C18.0561 17.5 18.1118 17.4989 18.1671 17.4967C19.5567 17.5296 20.8822 17.9729 22.0105 18.7837C22.2908 18.9851 22.6814 18.9212 22.8828 18.6409C23.0842 18.3606 23.0203 17.9701 22.74 17.7686ZM18.1524 16.2462C18.1017 16.2453 18.051 16.2448 18.0002 16.2448C17.9498 16.2448 17.8994 16.2453 17.849 16.2462C16.2648 16.1672 15.0002 14.8535 15.0002 13.25C15.0002 11.5958 16.346 10.25 18.0002 10.25C19.6545 10.25 21.0002 11.5958 21.0002 13.25C21.0002 14.8532 19.7362 16.1667 18.1524 16.2462Z" fill="#31609A"/>
<path d="M24.2277 22.3437L25.817 20.7545C26.061 20.5104 26.061 20.1146 25.817 19.8705C25.5729 19.6264 25.1771 19.6264 24.9331 19.8705L23.3438 21.4598L21.7544 19.8705C21.5104 19.6264 21.1146 19.6264 20.8706 19.8705C20.6265 20.1146 20.6265 20.5104 20.8706 20.7544L22.4599 22.3437L20.8706 23.933C20.6265 24.1771 20.6265 24.5729 20.8706 24.8169C20.9926 24.939 21.1525 25 21.3125 25C21.4725 25 21.6324 24.939 21.7544 24.817L23.3438 23.2276L24.9331 24.817C25.0551 24.939 25.215 25 25.375 25C25.535 25 25.6949 24.939 25.817 24.817C26.061 24.5729 26.061 24.1771 25.817 23.9331L24.2277 22.3437Z" fill="#31609A"/>
</g>
<path d="M0.5 0.5H32C33.933 0.5 35.5 2.067 35.5 4V30C35.5 31.933 33.933 33.5 32 33.5H0.5V0.5Z" stroke="#31609A"/>
<defs>
<clipPath id="clip0_86_37">
<rect width="16" height="16" fill="white" transform="translate(10 9)"/>
</clipPath>
</defs>
</svg>
