<svg width="659" height="984" viewBox="0 0 659 984" fill="none" xmlns="http://www.w3.org/2000/svg">
<g opacity="0.3" clip-path="url(#clip0_946_13)">
<path d="M164.284 0C73.5618 0 0 73.5486 0 164.255V327.854C90.7226 327.854 164.284 254.306 164.284 163.599V0Z" fill="#505050"/>
<path d="M164.284 0C117.939 0 80.3387 37.594 80.3387 83.9307V164.146C126.684 164.146 164.284 126.552 164.284 80.215V0Z" fill="#428BFF"/>
<path d="M331.848 0C241.125 0 167.564 73.5486 167.564 164.255V327.854C258.286 327.854 331.848 254.306 331.848 163.599V0Z" fill="#ADD6E3"/>
<path d="M251.619 163.927C205.274 163.927 167.673 201.521 167.673 247.858V328.073C214.018 328.073 251.619 290.479 251.619 244.142V163.927Z" fill="#62D3EF"/>
<path d="M167.892 327.745C121.546 327.745 83.9457 365.339 83.9457 411.676V491.891C130.291 491.891 167.892 454.297 167.892 407.96V327.745Z" fill="#62D3EF"/>
<path d="M83.9457 409.927C37.6007 409.927 0 447.412 0 493.858V574.073C46.345 574.073 83.9457 536.479 83.9457 490.142V409.927Z" fill="#428BFF"/>
<path d="M505.423 0C505.423 90.1599 432.299 163.162 342.232 163.162C338.953 163.162 335.674 163.053 332.395 162.834V0H505.423Z" fill="#31609A"/>
<path d="M654.733 656.036C654.733 744.12 586.199 815.483 501.707 815.483C498.646 815.483 495.477 815.374 492.525 815.155V656.036H654.733Z" fill="#31609A"/>
<path d="M493.618 978.179C405.519 978.179 334.143 909.657 334.143 825.18C334.143 822.12 334.253 818.951 334.471 816H493.728V978.179H493.618Z" fill="#31609A"/>
<path d="M411.312 327.417C456.286 327.417 492.744 290.965 492.744 246C492.744 201.034 456.286 164.583 411.312 164.583C366.339 164.583 329.881 201.034 329.881 246C329.881 290.965 366.339 327.417 411.312 327.417Z" fill="#62D3EF"/>
<path d="M411.312 291.9C436.666 291.9 457.22 271.35 457.22 246C457.22 220.65 436.666 200.1 411.312 200.1C385.958 200.1 365.404 220.65 365.404 246C365.404 271.35 385.958 291.9 411.312 291.9Z" fill="#31609A"/>
<path d="M658.012 324.139C658.012 370.475 620.412 408.069 574.066 408.069H493.837C493.837 361.733 531.438 324.139 577.783 324.139H658.012Z" fill="#505050"/>
<path d="M574.832 408.397C574.832 454.734 537.231 492.328 490.886 492.328H410.656C410.656 445.991 448.257 408.397 494.602 408.397H574.832Z" fill="#428BFF"/>
<path d="M167.673 328.073C214.018 328.073 251.619 365.667 251.619 412.003V492.218C205.274 492.218 167.673 454.624 167.673 408.288V328.073V328.073Z" fill="#505050"/>
<path d="M333.706 328.073C288.345 328.073 251.619 364.792 251.619 410.146V492.218H333.706C379.068 492.218 415.794 455.499 415.794 410.146C415.903 364.902 379.068 328.073 333.706 328.073Z" fill="#31609A"/>
<path d="M615.493 471.564C629.196 471.564 640.305 460.457 640.305 446.756C640.305 433.055 629.196 421.948 615.493 421.948C601.789 421.948 590.681 433.055 590.681 446.756C590.681 460.457 601.789 471.564 615.493 471.564Z" fill="#31609A"/>
<path d="M42.9566 390.147C55.2715 390.147 65.2547 380.165 65.2547 367.852C65.2547 355.54 55.2715 345.558 42.9566 345.558C30.6417 345.558 20.6585 355.54 20.6585 367.852C20.6585 380.165 30.6417 390.147 42.9566 390.147Z" fill="#31609A"/>
<path d="M122.53 555.931C135.992 555.931 146.905 545.02 146.905 531.561C146.905 518.101 135.992 507.19 122.53 507.19C109.068 507.19 98.1553 518.101 98.1553 531.561C98.1553 545.02 109.068 555.931 122.53 555.931Z" fill="#32609B"/>
<path d="M451.318 392.988C464.84 392.988 475.802 382.028 475.802 368.508C475.802 354.988 464.84 344.028 451.318 344.028C437.795 344.028 426.833 354.988 426.833 368.508C426.833 382.028 437.795 392.988 451.318 392.988Z" fill="#428BFF"/>
<path d="M490.558 491.891C490.558 582.597 416.996 656.146 326.274 656.146H162.645C162.645 565.439 236.207 491.891 326.929 491.891H490.558V491.891Z" fill="#ADD6E3"/>
<path d="M326.929 572.106C326.929 618.442 289.329 656.036 242.984 656.036H162.754C162.754 609.7 200.355 572.106 246.7 572.106H326.929Z" fill="#31609A"/>
<path d="M574.832 656.036C620.193 656.036 656.919 619.317 656.919 573.963V491.891H574.832C529.47 491.891 492.744 528.61 492.744 573.963C492.744 619.317 529.47 656.036 574.832 656.036Z" fill="#62D3EF"/>
<path d="M122.53 555.931C135.992 555.931 146.905 545.02 146.905 531.561C146.905 518.101 135.992 507.19 122.53 507.19C109.068 507.19 98.1553 518.101 98.1553 531.561C98.1553 545.02 109.068 555.931 122.53 555.931Z" fill="#428BFF"/>
<path d="M122.53 632.759C135.992 632.759 146.905 621.848 146.905 608.388C146.905 594.929 135.992 584.018 122.53 584.018C109.068 584.018 98.1553 594.929 98.1553 608.388C98.1553 621.848 109.068 632.759 122.53 632.759Z" fill="#31609A"/>
<path d="M44.9241 632.759C58.3859 632.759 69.2989 621.848 69.2989 608.388C69.2989 594.929 58.3859 584.018 44.9241 584.018C31.4622 584.018 20.5492 594.929 20.5492 608.388C20.5492 621.848 31.4622 632.759 44.9241 632.759Z" fill="#505050"/>
<path d="M326.929 984C236.207 984 162.645 910.451 162.645 819.745V656.255C253.368 656.255 326.929 729.804 326.929 820.51V984Z" fill="#ADD6E3"/>
<path d="M246.7 820.51C200.355 820.51 162.754 782.916 162.754 736.579V656.364C209.099 656.364 246.7 693.958 246.7 740.295V820.51Z" fill="#F2F5F6"/>
<path d="M330.755 656.036C330.755 744.12 399.289 815.483 483.781 815.483C486.842 815.483 490.011 815.374 492.963 815.155V656.036H330.755Z" fill="#505050"/>
<path d="M407.049 656.036C407.049 702.701 443.338 740.513 488.153 740.513C489.793 740.513 491.432 740.514 493.072 740.404V656.036H407.049V656.036Z" fill="#428BFF"/>
<path d="M0 815.592C0 903.676 68.5338 975.039 153.026 975.039C156.087 975.039 159.256 974.929 162.208 974.711V815.592H0Z" fill="#62D3EF"/>
<path d="M76.2944 815.592C76.2944 862.257 112.583 900.069 157.398 900.069C159.038 900.069 160.677 900.069 162.317 899.96V815.592H76.2944V815.592Z" fill="#505050"/>
<path d="M0 815.592C0 727.509 68.5338 656.146 153.026 656.146C156.087 656.146 159.256 656.255 162.208 656.474V815.702H0V815.592Z" fill="#31609A"/>
</g>
<defs>
<clipPath id="clip0_946_13">
<rect width="658.012" height="984" fill="white"/>
</clipPath>
</defs>
</svg>
