<svg width="12" height="12" viewBox="0 0 12 12" fill="none" xmlns="http://www.w3.org/2000/svg">
<rect width="12" height="12" fill="#E5E5E5"/>
<g filter="url(#filter0_d_16_0)">
<rect x="-294" y="-14" width="320" height="68" rx="6" fill="#6FCF97"/>
<path d="M6.93931 6L11.1393 1.80667C11.2648 1.68113 11.3354 1.51087 11.3354 1.33333C11.3354 1.1558 11.2648 0.985537 11.1393 0.860002C11.0138 0.734466 10.8435 0.66394 10.666 0.66394C10.4884 0.66394 10.3182 0.734466 10.1926 0.860002L5.99931 5.06L1.80597 0.860002C1.68044 0.734466 1.51018 0.663941 1.33264 0.663941C1.15511 0.663941 0.984844 0.734466 0.859308 0.860002C0.733772 0.985537 0.663247 1.1558 0.663247 1.33333C0.663247 1.51087 0.733772 1.68113 0.859308 1.80667L5.05931 6L0.859308 10.1933C0.796823 10.2553 0.747227 10.329 0.713381 10.4103C0.679535 10.4915 0.662109 10.5787 0.662109 10.6667C0.662109 10.7547 0.679535 10.8418 0.713381 10.9231C0.747227 11.0043 0.796823 11.078 0.859308 11.14C0.921284 11.2025 0.995018 11.2521 1.07626 11.2859C1.1575 11.3198 1.24463 11.3372 1.33264 11.3372C1.42065 11.3372 1.50779 11.3198 1.58903 11.2859C1.67027 11.2521 1.744 11.2025 1.80597 11.14L5.99931 6.94L10.1926 11.14C10.2546 11.2025 10.3284 11.2521 10.4096 11.2859C10.4908 11.3198 10.578 11.3372 10.666 11.3372C10.754 11.3372 10.8411 11.3198 10.9224 11.2859C11.0036 11.2521 11.0773 11.2025 11.1393 11.14C11.2018 11.078 11.2514 11.0043 11.2852 10.9231C11.3191 10.8418 11.3365 10.7547 11.3365 10.6667C11.3365 10.5787 11.3191 10.4915 11.2852 10.4103C11.2514 10.329 11.2018 10.2553 11.1393 10.1933L6.93931 6Z" fill="white"/>
<rect x="-293.5" y="-13.5" width="319" height="67" rx="5.5" stroke="#6FCF97"/>
</g>
<defs>
<filter id="filter0_d_16_0" x="-320" y="-38" width="372" height="120" filterUnits="userSpaceOnUse" color-interpolation-filters="sRGB">
<feFlood flood-opacity="0" result="BackgroundImageFix"/>
<feColorMatrix in="SourceAlpha" type="matrix" values="0 0 0 0 0 0 0 0 0 0 0 0 0 0 0 0 0 0 127 0" result="hardAlpha"/>
<feOffset dy="2"/>
<feGaussianBlur stdDeviation="13"/>
<feColorMatrix type="matrix" values="0 0 0 0 0.319817 0 0 0 0 0.841623 0 0 0 0 0 0 0 0 0.1 0"/>
<feBlend mode="normal" in2="BackgroundImageFix" result="effect1_dropShadow_16_0"/>
<feBlend mode="normal" in="SourceGraphic" in2="effect1_dropShadow_16_0" result="shape"/>
</filter>
</defs>
</svg>
