<svg width="46" height="50" viewBox="0 0 46 50" fill="none" xmlns="http://www.w3.org/2000/svg">
<rect width="46" height="50" fill="#E5E5E5"/>
<rect width="1440" height="1024" transform="translate(-627 -326)" fill="#F4F6F7"/>
<g filter="url(#filter0_d_16_0)">
<rect x="-87" y="-127" width="870" height="639" rx="8" fill="white"/>
</g>
<rect x="-36.5" y="-34.5" width="119" height="119" rx="7.5" fill="#F3F4F5" stroke="#DCDCDC"/>
<g opacity="0.4" clip-path="url(#clip0_16_0)">
<path d="M32.1797 23.6328C24.9104 23.6328 18.9961 29.5471 18.9961 36.8164C18.9961 44.0857 24.9104 50 32.1797 50C39.449 50 45.3633 44.0857 45.3633 36.8164C45.3633 29.5471 39.449 23.6328 32.1797 23.6328ZM32.1797 46.0938C27.0642 46.0938 22.9023 41.9319 22.9023 36.8164C22.9023 31.7009 27.0642 27.5391 32.1797 27.5391C37.2952 27.5391 41.457 31.7009 41.457 36.8164C41.457 41.9319 37.2952 46.0938 32.1797 46.0938ZM38.0391 36.8164C38.0391 37.8952 37.1647 38.7695 36.0859 38.7695H34.1328V40.7227C34.1328 41.8015 33.2585 42.6758 32.1797 42.6758C31.1009 42.6758 30.2266 41.8015 30.2266 40.7227V38.7695H28.2734C27.1946 38.7695 26.3203 37.8952 26.3203 36.8164C26.3203 35.7376 27.1946 34.8633 28.2734 34.8633H30.2266V32.9102C30.2266 31.8314 31.1009 30.957 32.1797 30.957C33.2585 30.957 34.1328 31.8314 34.1328 32.9102V34.8633H36.0859C37.1647 34.8633 38.0391 35.7376 38.0391 36.8164ZM18.2148 48.0469C18.2148 49.1257 17.3405 50 16.2617 50H8.44922C4.14128 50 0.636719 46.4954 0.636719 42.1875V14.146C0.636719 12.1181 1.42293 10.2085 2.85039 8.76846L9.2999 2.26135C10.7243 0.824356 12.7018 0 14.7255 0H32.462C36.7695 0 40.2745 3.50456 40.2745 7.8125V18.1641C40.2745 19.2429 39.3998 20.1172 38.3214 20.1172C37.2426 20.1172 36.3682 19.2429 36.3682 18.1641V7.8125C36.3682 5.65872 34.6158 3.90625 32.462 3.90625H14.7255C13.7368 3.90625 12.7701 4.30908 12.0743 5.01137L5.62482 11.5181C5.30934 11.8362 5.05872 12.2017 4.87828 12.5977H10.3047C11.9202 12.5977 13.2344 11.2831 13.2344 9.66797C13.2344 8.58917 14.1087 7.71484 15.1875 7.71484C16.2663 7.71484 17.1406 8.58917 17.1406 9.66797C17.1406 13.4373 14.074 16.5039 10.3047 16.5039H4.54297V42.1875C4.54297 44.3413 6.29544 46.0938 8.44922 46.0938H16.2617C17.3405 46.0938 18.2148 46.9681 18.2148 48.0469Z" fill="#505050"/>
</g>
<defs>
<filter id="filter0_d_16_0" x="-91" y="-127" width="878" height="648" filterUnits="userSpaceOnUse" color-interpolation-filters="sRGB">
<feFlood flood-opacity="0" result="BackgroundImageFix"/>
<feColorMatrix in="SourceAlpha" type="matrix" values="0 0 0 0 0 0 0 0 0 0 0 0 0 0 0 0 0 0 127 0" result="hardAlpha"/>
<feMorphology radius="5" operator="erode" in="SourceAlpha" result="effect1_dropShadow_16_0"/>
<feOffset dy="5"/>
<feGaussianBlur stdDeviation="4.5"/>
<feColorMatrix type="matrix" values="0 0 0 0 0 0 0 0 0 0 0 0 0 0 0 0 0 0 0.05 0"/>
<feBlend mode="normal" in2="BackgroundImageFix" result="effect1_dropShadow_16_0"/>
<feBlend mode="normal" in="SourceGraphic" in2="effect1_dropShadow_16_0" result="shape"/>
</filter>
<clipPath id="clip0_16_0">
<rect width="50" height="50" fill="white" transform="translate(-2)"/>
</clipPath>
</defs>
</svg>
