<svg width="22" height="22" viewBox="0 0 22 22" fill="none" xmlns="http://www.w3.org/2000/svg">
<rect width="22" height="22" fill="#E5E5E5"/>
<rect width="1440" height="1024" transform="translate(-1026 -373)" fill="#F4F6F7"/>
<g filter="url(#filter0_d_16_0)">
<path d="M-786 -72C-786 -76.4183 -782.418 -80 -778 -80H76C80.4183 -80 84 -76.4183 84 -72V658C84 662.418 80.4183 666 76 666H-778C-782.418 666 -786 662.418 -786 658V-72Z" fill="white"/>
</g>
<circle cx="11" cy="11" r="10.5" fill="white" stroke="#436DA2"/>
<g clip-path="url(#clip0_16_0)">
<path d="M11.442 11.0003L14.9085 7.53373C15.0305 7.41168 15.0305 7.21381 14.9085 7.09178C14.7864 6.96975 14.5886 6.96973 14.4665 7.09178L11 10.5583L7.53349 7.09178C7.41144 6.96973 7.21357 6.96973 7.09153 7.09178C6.9695 7.21383 6.96949 7.4117 7.09153 7.53373L10.558 11.0002L7.09153 14.4668C6.96949 14.5888 6.96949 14.7867 7.09153 14.9087C7.15255 14.9697 7.23253 15.0002 7.31252 15.0002C7.3925 15.0002 7.47247 14.9697 7.5335 14.9087L11 11.4422L14.4665 14.9087C14.5275 14.9697 14.6075 15.0002 14.6875 15.0002C14.7675 15.0002 14.8474 14.9697 14.9085 14.9087C15.0305 14.7867 15.0305 14.5888 14.9085 14.4668L11.442 11.0003Z" fill="#436DA2"/>
</g>
<defs>
<filter id="filter0_d_16_0" x="-795" y="-84" width="888" height="764" filterUnits="userSpaceOnUse" color-interpolation-filters="sRGB">
<feFlood flood-opacity="0" result="BackgroundImageFix"/>
<feColorMatrix in="SourceAlpha" type="matrix" values="0 0 0 0 0 0 0 0 0 0 0 0 0 0 0 0 0 0 127 0" result="hardAlpha"/>
<feOffset dy="5"/>
<feGaussianBlur stdDeviation="4.5"/>
<feColorMatrix type="matrix" values="0 0 0 0 0 0 0 0 0 0 0 0 0 0 0 0 0 0 0.05 0"/>
<feBlend mode="normal" in2="BackgroundImageFix" result="effect1_dropShadow_16_0"/>
<feBlend mode="normal" in="SourceGraphic" in2="effect1_dropShadow_16_0" result="shape"/>
</filter>
<clipPath id="clip0_16_0">
<rect width="8" height="8" fill="white" transform="translate(7 7)"/>
</clipPath>
</defs>
</svg>
